<svg xmlns="http://www.w3.org/2000/svg" xmlns:xlink="http://www.w3.org/1999/xlink" zoomAndPan="magnify"
     viewBox="0 0 1326.75 449.999984" preserveAspectRatio="xMidYMid meet" version="1.0">
    <defs>
        <g/>
    </defs>
    <g fill="#ffffff" fill-opacity="1">
        <g transform="translate(117.25607, 228.102337)">
            <g>
                <path d="M 8.671875 -196.046875 L 62.765625 -196.046875 C 76.765625 -196.046875 87.265625 -192.164062 94.265625 -184.40625 C 101.265625 -176.644531 104.835938 -165.160156 104.984375 -149.953125 L 105.4375 -58.203125 C 105.59375 -38.878906 102.242188 -24.347656 95.390625 -14.609375 C 88.546875 -4.867188 77.210938 0 61.390625 0 L 8.671875 0 Z M 55 -34.6875 C 62.15625 -34.6875 65.734375 -38.1875 65.734375 -45.1875 L 65.734375 -146.296875 C 65.734375 -150.710938 65.390625 -154.019531 64.703125 -156.21875 C 64.015625 -158.425781 62.757812 -159.910156 60.9375 -160.671875 C 59.113281 -161.429688 56.300781 -161.8125 52.5 -161.8125 L 48.15625 -161.8125 L 48.15625 -34.6875 Z M 55 -34.6875 "/>
            </g>
        </g>
    </g>
    <g fill="#ffffff" fill-opacity="1">
        <g transform="translate(217.212339, 228.102337)">
            <g>
                <path d="M 8.671875 -196.046875 L 68.921875 -196.046875 C 78.515625 -196.046875 85.929688 -193.878906 91.171875 -189.546875 C 96.421875 -185.210938 99.957031 -179.125 101.78125 -171.28125 C 103.613281 -163.445312 104.53125 -153.445312 104.53125 -141.28125 C 104.53125 -130.164062 103.082031 -121.488281 100.1875 -115.25 C 97.300781 -109.019531 92.28125 -104.6875 85.125 -102.25 C 91.0625 -101.03125 95.359375 -98.0625 98.015625 -93.34375 C 100.679688 -88.625 102.015625 -82.234375 102.015625 -74.171875 L 101.5625 0 L 63.21875 0 L 63.21875 -76.6875 C 63.21875 -82.164062 62.148438 -85.664062 60.015625 -87.1875 C 57.890625 -88.707031 54.015625 -89.46875 48.390625 -89.46875 L 48.390625 0 L 8.671875 0 Z M 57.96875 -123.46875 C 63.445312 -123.46875 66.1875 -129.40625 66.1875 -141.28125 C 66.1875 -146.445312 65.957031 -150.320312 65.5 -152.90625 C 65.039062 -155.5 64.203125 -157.289062 62.984375 -158.28125 C 61.773438 -159.269531 60.03125 -159.765625 57.75 -159.765625 L 48.609375 -159.765625 L 48.609375 -123.46875 Z M 57.96875 -123.46875 "/>
            </g>
        </g>
    </g>
    <g fill="#ffffff" fill-opacity="1">
        <g transform="translate(313.51719, 228.102337)">
            <g>
                <path d="M 6.84375 0 L 6.84375 -196.046875 L 44.734375 -196.046875 L 44.734375 0 Z M 6.84375 0 "/>
            </g>
        </g>
    </g>
    <g fill="#ffffff" fill-opacity="1">
        <g transform="translate(352.768435, 228.102337)">
            <g>
                <path d="M 26.703125 0 L 2.515625 -196.28125 L 39.9375 -196.28125 L 54.3125 -62.765625 L 67.09375 -196.28125 L 104.53125 -196.28125 L 80.34375 0 Z M 26.703125 0 "/>
            </g>
        </g>
    </g>
    <g fill="#ffffff" fill-opacity="1">
        <g transform="translate(447.247579, 228.102337)">
            <g>
                <path d="M 8.671875 0 L 8.671875 -196.046875 L 87.1875 -196.046875 L 87.1875 -158.171875 L 48.609375 -158.171875 L 48.609375 -120.046875 L 85.59375 -120.046875 L 85.59375 -83.078125 L 48.609375 -83.078125 L 48.609375 -38.109375 L 89.703125 -38.109375 L 89.703125 0 Z M 8.671875 0 "/>
            </g>
        </g>
    </g>
    <g fill="#ffffff" fill-opacity="1">
        <g transform="translate(528.718496, 228.102337)">
            <g>
                <path d="M 8.671875 -196.046875 L 68.921875 -196.046875 C 78.515625 -196.046875 85.929688 -193.878906 91.171875 -189.546875 C 96.421875 -185.210938 99.957031 -179.125 101.78125 -171.28125 C 103.613281 -163.445312 104.53125 -153.445312 104.53125 -141.28125 C 104.53125 -130.164062 103.082031 -121.488281 100.1875 -115.25 C 97.300781 -109.019531 92.28125 -104.6875 85.125 -102.25 C 91.0625 -101.03125 95.359375 -98.0625 98.015625 -93.34375 C 100.679688 -88.625 102.015625 -82.234375 102.015625 -74.171875 L 101.5625 0 L 63.21875 0 L 63.21875 -76.6875 C 63.21875 -82.164062 62.148438 -85.664062 60.015625 -87.1875 C 57.890625 -88.707031 54.015625 -89.46875 48.390625 -89.46875 L 48.390625 0 L 8.671875 0 Z M 57.96875 -123.46875 C 63.445312 -123.46875 66.1875 -129.40625 66.1875 -141.28125 C 66.1875 -146.445312 65.957031 -150.320312 65.5 -152.90625 C 65.039062 -155.5 64.203125 -157.289062 62.984375 -158.28125 C 61.773438 -159.269531 60.03125 -159.765625 57.75 -159.765625 L 48.609375 -159.765625 L 48.609375 -123.46875 Z M 57.96875 -123.46875 "/>
            </g>
        </g>
    </g>
    <g fill="#ffffff" fill-opacity="1">
        <g transform="translate(625.023348, 228.102337)">
            <g>
                <path d="M 55.234375 1.828125 C 37.429688 1.828125 24.570312 -2.582031 16.65625 -11.40625 C 8.75 -20.238281 4.796875 -34.46875 4.796875 -54.09375 L 4.796875 -73.265625 L 43.359375 -73.265625 L 43.359375 -48.84375 C 43.359375 -39.101562 46.476562 -34.234375 52.71875 -34.234375 C 56.21875 -34.234375 58.648438 -35.257812 60.015625 -37.3125 C 61.390625 -39.363281 62.078125 -42.828125 62.078125 -47.703125 C 62.078125 -54.085938 61.316406 -59.375 59.796875 -63.5625 C 58.273438 -67.75 56.332031 -71.25 53.96875 -74.0625 C 51.613281 -76.875 47.394531 -81.25 41.3125 -87.1875 L 24.421875 -104.078125 C 11.335938 -116.859375 4.796875 -131.007812 4.796875 -146.53125 C 4.796875 -163.257812 8.632812 -176 16.3125 -184.75 C 24 -193.5 35.222656 -197.875 49.984375 -197.875 C 67.628906 -197.875 80.332031 -193.195312 88.09375 -183.84375 C 95.851562 -174.488281 99.734375 -159.84375 99.734375 -139.90625 L 59.796875 -139.90625 L 59.5625 -153.375 C 59.5625 -155.957031 58.835938 -158.007812 57.390625 -159.53125 C 55.953125 -161.050781 53.941406 -161.8125 51.359375 -161.8125 C 48.304688 -161.8125 46.019531 -160.972656 44.5 -159.296875 C 42.976562 -157.628906 42.21875 -155.347656 42.21875 -152.453125 C 42.21875 -146.066406 45.867188 -139.453125 53.171875 -132.609375 L 76 -110.6875 C 81.320312 -105.519531 85.734375 -100.613281 89.234375 -95.96875 C 92.734375 -91.332031 95.546875 -85.851562 97.671875 -79.53125 C 99.804688 -73.21875 100.875 -65.726562 100.875 -57.0625 C 100.875 -37.738281 97.335938 -23.09375 90.265625 -13.125 C 83.191406 -3.15625 71.515625 1.828125 55.234375 1.828125 Z M 55.234375 1.828125 "/>
            </g>
        </g>
    </g>
    <g fill="#ffffff" fill-opacity="1">
        <g transform="translate(461.360607, 432.55144)">
            <g>
                <path d="M 54.3125 1.828125 C 40.007812 1.828125 28.5625 -2.660156 19.96875 -11.640625 C 11.375 -20.617188 7.078125 -32.941406 7.078125 -48.609375 L 7.078125 -139 C 7.078125 -158.46875 10.957031 -173.144531 18.71875 -183.03125 C 26.476562 -192.925781 38.648438 -197.875 55.234375 -197.875 C 69.691406 -197.875 81.332031 -193.914062 90.15625 -186 C 98.976562 -178.09375 103.390625 -166.6875 103.390625 -151.78125 L 103.390625 -118 L 64.359375 -118 L 64.359375 -146.984375 C 64.359375 -152.609375 63.671875 -156.484375 62.296875 -158.609375 C 60.929688 -160.742188 58.578125 -161.8125 55.234375 -161.8125 C 51.734375 -161.8125 49.335938 -160.59375 48.046875 -158.15625 C 46.753906 -155.726562 46.109375 -152.15625 46.109375 -147.4375 L 46.109375 -49.078125 C 46.109375 -43.898438 46.867188 -40.128906 48.390625 -37.765625 C 49.910156 -35.410156 52.191406 -34.234375 55.234375 -34.234375 C 61.316406 -34.234375 64.359375 -39.179688 64.359375 -49.078125 L 64.359375 -84.453125 L 103.84375 -84.453125 L 103.84375 -47.46875 C 103.84375 -14.601562 87.332031 1.828125 54.3125 1.828125 Z M 54.3125 1.828125 "/>
            </g>
        </g>
    </g>
    <g fill="#ffffff" fill-opacity="1">
        <g transform="translate(556.98082, 432.55144)">
            <g>
                <path d="M 3.421875 0 L 22.359375 -196.046875 L 88.78125 -196.046875 L 107.5 0 L 70.296875 0 L 67.5625 -31.71875 L 43.828125 -31.71875 L 41.53125 0 Z M 46.78125 -63 L 64.59375 -63 L 55.921875 -162.734375 L 54.09375 -162.734375 Z M 46.78125 -63 "/>
            </g>
        </g>
    </g>
    <g fill="#ffffff" fill-opacity="1">
        <g transform="translate(655.111379, 432.55144)">
            <g>
                <path d="M 8.671875 -196.046875 L 68.921875 -196.046875 C 78.515625 -196.046875 85.929688 -193.878906 91.171875 -189.546875 C 96.421875 -185.210938 99.957031 -179.125 101.78125 -171.28125 C 103.613281 -163.445312 104.53125 -153.445312 104.53125 -141.28125 C 104.53125 -130.164062 103.082031 -121.488281 100.1875 -115.25 C 97.300781 -109.019531 92.28125 -104.6875 85.125 -102.25 C 91.0625 -101.03125 95.359375 -98.0625 98.015625 -93.34375 C 100.679688 -88.625 102.015625 -82.234375 102.015625 -74.171875 L 101.5625 0 L 63.21875 0 L 63.21875 -76.6875 C 63.21875 -82.164062 62.148438 -85.664062 60.015625 -87.1875 C 57.890625 -88.707031 54.015625 -89.46875 48.390625 -89.46875 L 48.390625 0 L 8.671875 0 Z M 57.96875 -123.46875 C 63.445312 -123.46875 66.1875 -129.40625 66.1875 -141.28125 C 66.1875 -146.445312 65.957031 -150.320312 65.5 -152.90625 C 65.039062 -155.5 64.203125 -157.289062 62.984375 -158.28125 C 61.773438 -159.269531 60.03125 -159.765625 57.75 -159.765625 L 48.609375 -159.765625 L 48.609375 -123.46875 Z M 57.96875 -123.46875 "/>
            </g>
        </g>
    </g>
    <g fill="#ffffff" fill-opacity="1">
        <g transform="translate(751.416231, 432.55144)">
            <g>
                <path d="M 25.5625 0 L 25.5625 -158.390625 L 2.28125 -158.390625 L 2.28125 -196.046875 L 88.09375 -196.046875 L 88.09375 -158.390625 L 64.8125 -158.390625 L 64.8125 0 Z M 25.5625 0 "/>
            </g>
        </g>
    </g>
    <g fill="#ffffff" fill-opacity="1">
        <g transform="translate(829.235702, 432.55144)">
            <g>
                <path d="M 8.671875 0 L 8.671875 -196.046875 L 87.1875 -196.046875 L 87.1875 -158.171875 L 48.609375 -158.171875 L 48.609375 -120.046875 L 85.59375 -120.046875 L 85.59375 -83.078125 L 48.609375 -83.078125 L 48.609375 -38.109375 L 89.703125 -38.109375 L 89.703125 0 Z M 8.671875 0 "/>
            </g>
        </g>
    </g>
    <g fill="#ffffff" fill-opacity="1">
        <g transform="translate(910.706618, 432.55144)">
            <g>
                <path d="M 8.671875 0 L 8.671875 -196.046875 L 47.921875 -196.046875 L 47.921875 -33.328125 L 88.328125 -33.328125 L 88.328125 0 Z M 8.671875 0 "/>
            </g>
        </g>
    </g>
</svg>
